<svg id="Capa_1" enable-background="new 0 0 481.996 481.996" height="512" viewBox="0 0 481.996 481.996" width="512" xmlns="http://www.w3.org/2000/svg">
    <g>
        <path d="m333.247 18.286 65.231 65.231-157.48 157.48-60-136 60-104.997c31.392 0 62.784 6.095 92.249 18.286z" fill="#d6152e"/>
        <path d="m148.749 18.286-65.231 65.23 157.48 157.48v-240.996c-31.392 0-62.784 6.095-92.249 18.286z" fill="#fc2339"/>
        <path d="m148.748 18.286 92.25 222.71h-222.71v-92.25c24.43-58.91 71.55-106.03 130.46-130.46z" fill="#ff5253"/>
        <path d="m18.288 148.747 222.71 92.249-157.48 157.48-65.231-65.231c-24.38-58.93-24.38-125.568.001-184.498z" fill="#fc2339"/>
        <path d="m18.288 333.246 222.71-92.25v222.71h-92.25c-58.91-24.43-106.03-71.55-130.46-130.46z" fill="#ff5253"/>
        <path d="m240.998 240.996 45 136-45 105c-32.68 0-63.83-6.5-92.25-18.29z" fill="#fc2339"/>
        <path d="m240.998 240.996v240.996c31.392 0 62.784-6.095 92.249-18.286l65.231-65.231z" fill="#d6152e"/>
        <path d="m333.248 463.706-92.25-222.71h222.71v92.25c-24.43 58.91-71.55 106.03-130.46 130.46z" fill="#fc2339"/>
        <path d="m463.708 333.245-222.71-92.249 157.48-157.48 65.231 65.231c24.38 58.93 24.38 125.568-.001 184.498z" fill="#d6152e"/>
        <path d="m463.708 148.746-222.71 92.25 92.25-222.71c58.91 24.43 106.03 71.55 130.46 130.46z" fill="#fc2339"/>
        <path d="m240.998 59.996-136.124 181 136.124 181c99.963 0 181-81.037 181-181s-81.036-181-181-181z" fill="#ff5253"/>
        <path d="m59.998 240.996c0 99.963 81.037 181 181 181v-362c-99.963 0-181 81.037-181 181z" fill="#ff7b6b"/>
        <path d="m240.998 104.996-102.281 136 102.281 136c75.111 0 136-60.889 136-136s-60.889-136-136-136z" fill="#ffd4c4"/>
        <path d="m104.998 240.996c0 75.111 60.889 136 136 136v-272c-75.111 0-136 60.889-136 136z" fill="#ffebe3"/>
    </g>
</svg>