<svg width="108" height="108" xmlns="http://www.w3.org/2000/svg" xmlns:xlink="http://www.w3.org/1999/xlink" preserveAspectRatio="xMidYMid meet">
 <defs>
  <path id="b1HNFvfxG" d="m102.71,52.4c0,27.6 -22.41,50 -50,50c-27.6,0 -50,-22.4 -50,-50c0,-27.6 22.4,-50 50,-50c27.59,0 50,22.4 50,50z"/>
  <path id="btPE1pQRH" d="m81.24,27.64l-55,55"/>
  <path id="b5jMzf6XZv" d="m52.71,27.64l28.53,0l-28.53,0z"/>
  <path id="euUmlamZV" d="m81.24,55.14l0,-27.83l0,27.83z"/>
  <path id="aBY6BOaZ0"/>
 </defs>
 <g>
  <title>background</title>
  <rect fill="none" id="canvas_background" height="110" width="110" y="-1" x="-1"/>
 </g>
 <g>
  <title>Layer 1</title>
  <g stroke="null" id="svg_1">
   <g stroke="null" id="svg_2">
    <g stroke="null" id="svg_3">
     <use stroke="null" x="1.2766" y="1.45106" id="svg_4" fill="#00dc00" xlink:href="#b1HNFvfxG"/>
     <g stroke="null" id="svg_5">
      <use stroke="#272727" x="1.2766" y="1.45106" id="svg_6" stroke-width="7" fill-opacity="0" xlink:href="#b1HNFvfxG"/>
     </g>
    </g>
    <g stroke="null" id="svg_7">
     <g stroke="null" id="svg_8">
      <use stroke="#272727" x="1.2766" y="1.45106" id="svg_9" stroke-width="7" fill-opacity="0" xlink:href="#btPE1pQRH"/>
     </g>
    </g>
    <g stroke="null" id="svg_10">
     <g stroke="null" id="svg_11">
      <use stroke="#272727" x="1.2766" y="1.45106" id="svg_12" stroke-width="7" fill-opacity="0" xlink:href="#b5jMzf6XZv"/>
     </g>
    </g>
    <g stroke="null" id="svg_13">
     <g stroke="null" id="svg_14">
      <use stroke="#272727" x="1.2766" y="1.45106" id="svg_15" stroke-width="7" fill-opacity="0" xlink:href="#euUmlamZV"/>
     </g>
    </g>
    <g stroke="null" id="svg_16">
     <g stroke="null" id="svg_17">
      <use stroke="#272727" x="1.2766" y="1.45106" id="svg_18" stroke-width="5" fill-opacity="0" xlink:href="#aBY6BOaZ0"/>
     </g>
    </g>
   </g>
  </g>
 </g>
</svg>